<svg width="120" height="36" viewBox="0 0 120 36" fill="none" xmlns="http://www.w3.org/2000/svg">
<path d="M5.80811 34.408C4.48944 33.5493 3.70744 32.6907 3.46211 31.832C3.24744 30.9733 3.55411 30.2833 4.38211 29.762C4.56611 29.6393 4.91877 29.624 5.44011 29.716C5.99211 29.808 6.40611 29.992 6.68211 30.268C7.29544 30.82 7.98544 31.1573 8.75211 31.28C9.54944 31.4333 10.5154 31.3567 11.6501 31.05C12.9381 30.6513 13.9194 30.1607 14.5941 29.578C15.2994 28.9647 16.0814 28.1367 16.9401 27.094C17.5841 26.266 18.0288 25.4533 18.2741 24.656C18.5501 23.8587 18.6728 23.138 18.6421 22.494C18.6421 21.8193 18.4888 21.3133 18.1821 20.976C17.4154 19.9027 16.4648 19.1667 15.3301 18.768C14.1954 18.3387 12.7081 18.3693 10.8681 18.86C10.6534 18.8907 10.3314 18.952 9.90211 19.044C9.47277 19.136 9.08944 19.228 8.75211 19.32C8.41477 19.3813 8.23077 19.412 8.20011 19.412C7.98544 19.4733 7.81677 19.504 7.69411 19.504C7.57144 19.504 7.41811 19.6573 7.23411 19.964C7.08077 20.24 6.83544 20.838 6.49811 21.758C6.16077 22.6473 5.65477 24.0273 4.98011 25.898C4.33611 27.7687 3.78411 29.1027 3.32411 29.9C2.89477 30.6667 2.51144 31.0193 2.17411 30.958C1.83677 30.866 1.45344 30.5287 1.02411 29.946C0.778772 29.5167 0.502772 29.0413 0.196105 28.52C-0.0798947 27.9987 -0.0645614 27.462 0.242105 26.91C0.395439 26.634 0.518105 26.3887 0.610105 26.174C0.702105 25.9287 0.824772 25.5147 0.978105 24.932C1.13144 24.472 1.42277 23.6747 1.85211 22.54C2.31211 21.3747 2.84877 20.0253 3.46211 18.492C4.07544 16.928 4.71944 15.318 5.39411 13.662C6.06877 12.006 6.71277 10.442 7.32611 8.97C7.97011 7.498 8.50677 6.256 8.93611 5.244C9.36544 4.29333 9.62611 3.60333 9.71811 3.174C9.81011 2.74467 9.77944 2.51467 9.62611 2.484C9.62611 2.33067 9.58011 2.19267 9.48811 2.07C9.39611 1.91667 9.36544 1.77867 9.39611 1.656C9.39611 1.53333 9.65677 1.36467 10.1781 1.15C10.7301 0.935333 11.3128 0.735999 11.9261 0.552C12.5394 0.368 12.9841 0.306667 13.2601 0.367999C13.4134 0.367999 13.5974 0.367999 13.8121 0.367999C14.0268 0.337333 14.1341 0.260667 14.1341 0.138C14.2261 0.138 14.5174 0.107333 15.0081 0.0460008C15.4988 -0.0153336 16.0354 -0.0153336 16.6181 0.0460008C18.6728 0.23 20.3594 0.828 21.6781 1.84C22.9968 2.82133 23.6408 4.40067 23.6101 6.578C23.5794 7.09933 23.3648 7.774 22.9661 8.602C22.5674 9.43 22.0614 10.258 21.4481 11.086C20.8654 11.914 20.2368 12.6347 19.5621 13.248C19.1634 13.5853 18.7341 13.938 18.2741 14.306C17.8448 14.6433 17.4614 14.9347 17.1241 15.18C16.8174 15.3947 16.6641 15.502 16.6641 15.502C16.6641 15.502 16.7868 15.548 17.0321 15.64C17.2774 15.732 17.5381 15.824 17.8141 15.916C19.2248 16.4373 20.3288 17.0967 21.1261 17.894C21.9541 18.6913 22.5368 19.7953 22.8741 21.206C22.9968 21.666 22.9968 22.2333 22.8741 22.908C22.7821 23.5827 22.6441 24.2573 22.4601 24.932C22.2761 25.576 22.0768 26.128 21.8621 26.588C21.6474 26.8027 21.4788 27.0327 21.3561 27.278C21.2334 27.4927 21.1721 27.6 21.1721 27.6C21.1721 27.6613 21.0494 27.9067 20.8041 28.336C20.5588 28.7347 20.2674 29.1793 19.9301 29.67C19.5928 30.1607 19.2708 30.59 18.9641 30.958C18.6574 31.2033 18.2128 31.5407 17.6301 31.97C17.0781 32.43 16.4648 32.8747 15.7901 33.304C15.1461 33.7333 14.5328 34.0553 13.9501 34.27C13.0914 34.638 12.1254 34.8833 11.0521 35.006C10.0094 35.1593 9.01277 35.1747 8.06211 35.052C7.11144 34.96 6.36011 34.7453 5.80811 34.408ZM9.12011 15.318C9.12011 15.318 9.36544 15.272 9.85611 15.18C10.3774 15.0573 10.9448 14.9347 11.5581 14.812C12.1714 14.6587 12.6314 14.5207 12.9381 14.398C13.0914 14.306 13.3061 14.1833 13.5821 14.03C13.8888 13.8767 14.1954 13.6467 14.5021 13.34C14.9314 12.9413 15.3914 12.4967 15.8821 12.006C16.3728 11.4847 16.8481 10.9327 17.3081 10.35C17.7988 9.76733 18.2128 9.13867 18.5501 8.464C19.2554 7.36 19.6388 6.56267 19.7001 6.072C19.7614 5.58133 19.5928 5.13667 19.1941 4.738C18.9181 4.40067 18.5348 4.15533 18.0441 4.002C17.5534 3.818 17.0168 3.726 16.4341 3.726C15.8821 3.69533 15.3454 3.75667 14.8241 3.91C14.4254 4.03267 14.1188 4.186 13.9041 4.37C13.6894 4.52333 13.5821 4.76867 13.5821 5.106C13.5821 5.382 13.4901 5.67333 13.3061 5.98C13.1528 6.256 12.9994 6.47067 12.8461 6.624C12.8154 6.83867 12.7081 7.05333 12.5241 7.268C12.3708 7.452 12.2941 7.544 12.2941 7.544C12.2941 7.66667 12.0948 8.05 11.6961 8.694C11.3281 9.30733 10.9294 10.1967 10.5001 11.362C9.94811 12.6807 9.58011 13.6313 9.39611 14.214C9.21211 14.7967 9.12011 15.1647 9.12011 15.318Z" fill="white"/>
<path d="M26.2522 30.13C26.1296 29.8847 25.8536 29.6393 25.4242 29.394C25.0256 29.1487 24.8262 28.9647 24.8262 28.842C24.8262 28.7193 24.7496 28.5353 24.5962 28.29C24.4736 28.014 24.3509 27.8147 24.2282 27.692C24.0749 27.508 24.1209 27.0633 24.3662 26.358C24.6116 25.622 24.9796 24.7327 25.4702 23.69C25.9609 22.6473 26.4976 21.5893 27.0802 20.516C27.3256 20.2707 27.5709 19.9487 27.8162 19.55C28.0616 19.1513 28.2456 18.8907 28.3682 18.768C28.3682 18.6453 28.4142 18.538 28.5062 18.446C28.5982 18.3233 28.7056 18.262 28.8282 18.262L29.1962 17.526C29.2576 17.4033 29.4416 17.158 29.7482 16.79C30.0856 16.422 30.4842 16.0233 30.9442 15.594C31.4042 15.134 31.8642 14.7047 32.3242 14.306C32.8149 13.9073 33.2136 13.616 33.5202 13.432C34.1642 13.0027 34.8236 12.8033 35.4982 12.834C36.2036 12.8647 36.8016 13.0793 37.2922 13.478C37.3842 13.57 37.5836 13.754 37.8902 14.03C38.2276 14.306 38.5956 14.6127 38.9942 14.95C39.4236 15.2873 39.7916 15.594 40.0982 15.87L41.8002 17.388L41.0182 19.688C40.6196 20.9147 40.5122 21.988 40.6962 22.908C40.8802 23.828 41.1716 24.6253 41.5702 25.3C41.7236 25.6373 41.9229 25.898 42.1682 26.082C42.4442 26.266 42.7969 26.3887 43.2262 26.45C43.4716 26.4807 43.7016 26.5727 43.9162 26.726C44.1309 26.8793 44.2382 27.1247 44.2382 27.462C44.2382 28.198 44.1002 28.7347 43.8242 29.072C43.5789 29.3787 43.3029 29.5627 42.9962 29.624C41.9842 29.7467 41.0182 29.6393 40.0982 29.302C39.1782 28.9647 38.3502 28.0907 37.6142 26.68C37.4916 26.496 37.3229 26.1587 37.1082 25.668C36.9242 25.1467 36.8169 24.8093 36.7862 24.656C36.6636 24.8093 36.4949 25.0087 36.2802 25.254C36.0962 25.4687 35.9122 25.668 35.7282 25.852C33.5509 28.06 31.6802 29.5013 30.1162 30.176C28.5829 30.82 27.2949 30.8047 26.2522 30.13ZM28.7822 26.312C28.9969 26.3427 29.3342 26.2353 29.7942 25.99C30.2542 25.714 30.8676 25.2693 31.6342 24.656C32.6769 23.7667 33.5356 23.0307 34.2102 22.448C34.8849 21.8653 35.5442 21.114 36.1882 20.194L37.2002 18.538C36.8936 17.8327 36.6176 17.3727 36.3722 17.158C36.1269 16.9433 35.8816 16.836 35.6362 16.836C35.2376 16.836 34.7622 17.0967 34.2102 17.618C33.6582 18.1087 33.0296 18.8447 32.3242 19.826C31.6496 20.7767 30.8829 21.9727 30.0242 23.414C29.6256 24.0887 29.3189 24.748 29.1042 25.392C28.8896 26.0053 28.7822 26.312 28.7822 26.312Z" fill="white"/>
<path d="M46.5515 29.854C46.2755 29.6393 45.9689 29.3633 45.6315 29.026C45.3249 28.6887 45.2175 28.2133 45.3095 27.6C45.4015 26.7413 45.5242 25.99 45.6775 25.346C45.8309 24.6713 46.0149 23.9047 46.2295 23.046C46.2909 22.678 46.4442 22.0493 46.6895 21.16C46.9655 20.2707 47.2875 19.3047 47.6555 18.262C48.0235 17.2193 48.4069 16.238 48.8055 15.318C49.2042 14.3673 49.5569 13.662 49.8635 13.202C50.2009 12.8953 50.6915 12.742 51.3355 12.742C52.0102 12.742 52.4702 12.8647 52.7155 13.11C53.0529 13.386 53.1602 13.8767 53.0375 14.582C52.9149 15.2567 52.4855 16.3147 51.7495 17.756C51.5962 18.124 51.3969 18.5227 51.1515 18.952C50.9369 19.3507 50.7835 19.688 50.6915 19.964C50.5995 20.2093 50.6302 20.3167 50.7835 20.286C50.9675 19.9487 51.3049 19.5653 51.7955 19.136C52.2862 18.676 52.8075 18.2313 53.3595 17.802C53.9115 17.3727 54.4329 16.9893 54.9235 16.652C55.4142 16.3147 55.7515 16.1 55.9355 16.008C56.1809 15.8547 56.4569 15.732 56.7635 15.64C57.1009 15.5173 57.3309 15.4253 57.4535 15.364C58.1589 15.0267 58.9255 14.904 59.7535 14.996C60.6122 15.0573 61.1335 15.318 61.3175 15.778C61.3482 16.0233 61.4402 16.2073 61.5935 16.33C61.7775 16.4527 61.8695 16.514 61.8695 16.514C61.9922 16.514 62.0535 16.56 62.0535 16.652C62.0842 16.744 62.0995 16.79 62.0995 16.79C62.0995 17.0047 61.8849 17.3113 61.4555 17.71C61.0569 18.1087 60.6122 18.3233 60.1215 18.354C59.7229 18.3847 59.3702 18.4613 59.0635 18.584C58.7569 18.7067 58.3889 18.86 57.9595 19.044C56.7942 19.7187 55.7362 20.3167 54.7855 20.838C53.8655 21.3593 52.9149 22.1567 51.9335 23.23C51.7189 23.4753 51.4889 23.7053 51.2435 23.92C50.9982 24.1347 50.7529 24.4413 50.5075 24.84C50.3542 24.9933 50.2009 25.3307 50.0475 25.852C49.8942 26.3733 49.7562 26.8793 49.6335 27.37C49.5415 27.83 49.4955 28.106 49.4955 28.198C49.4955 28.198 49.4495 28.3513 49.3575 28.658C49.2655 28.934 49.1122 29.21 48.8975 29.486C48.5295 29.9767 48.1615 30.2833 47.7935 30.406C47.4562 30.5287 47.0422 30.3447 46.5515 29.854Z" fill="white"/>
<path d="M66.3477 30.452C66.1024 30.5133 65.7804 30.544 65.3817 30.544C64.983 30.5133 64.6304 30.4673 64.3237 30.406C64.0477 30.314 63.9097 30.222 63.9097 30.13C63.9097 29.9767 63.833 29.9 63.6797 29.9C63.6797 29.9 63.511 29.7773 63.1737 29.532C62.8364 29.256 62.5297 29.0567 62.2537 28.934C61.9777 28.5047 61.7937 28.014 61.7017 27.462C61.6404 26.8793 61.8244 25.8673 62.2537 24.426C62.2844 23.4447 62.5604 22.4173 63.0817 21.344C63.603 20.24 64.2624 19.1667 65.0597 18.124C65.857 17.0813 66.685 16.1613 67.5437 15.364C68.4024 14.536 69.169 13.9227 69.8437 13.524C70.273 13.0947 70.8404 12.8647 71.5457 12.834C72.2817 12.8033 72.9257 12.9413 73.4777 13.248C73.7844 13.4013 74.1217 13.708 74.4897 14.168C74.8577 14.628 75.2104 15.1187 75.5477 15.64C75.885 16.1307 76.1457 16.5753 76.3297 16.974C76.4217 17.3113 76.4984 17.618 76.5597 17.894C76.6517 18.1393 76.713 18.446 76.7437 18.814C76.7744 19.182 76.7437 19.734 76.6517 20.47C76.4984 21.022 76.3604 21.5893 76.2377 22.172C76.1457 22.724 76.0997 23.2913 76.0997 23.874C76.0384 24.4567 76.0997 24.8707 76.2837 25.116C76.4984 25.3613 76.805 25.3767 77.2037 25.162C77.5717 24.978 77.955 24.9627 78.3537 25.116C78.7524 25.2387 79.0284 25.484 79.1817 25.852C79.3657 26.1893 79.3197 26.634 79.0437 27.186C78.8597 27.5847 78.5684 27.968 78.1697 28.336C77.771 28.704 77.3264 29.0107 76.8357 29.256C76.345 29.4707 75.8697 29.578 75.4097 29.578C75.0724 29.578 74.735 29.4553 74.3977 29.21C74.0604 28.934 73.7537 28.566 73.4777 28.106C73.2017 27.646 72.9717 27.14 72.7877 26.588L72.5117 25.53L70.8557 27.048C70.457 27.4773 70.0584 27.876 69.6597 28.244C69.2917 28.5813 69.0617 28.8267 68.9697 28.98C68.8164 29.256 68.5097 29.5013 68.0497 29.716C67.6204 29.9307 67.053 30.176 66.3477 30.452ZM67.5897 26.036C68.111 25.7293 68.5557 25.3613 68.9237 24.932C69.3224 24.5027 69.7057 24.0273 70.0737 23.506C70.4417 22.954 70.8404 22.3713 71.2697 21.758C71.791 21.0527 72.159 20.4853 72.3737 20.056C72.619 19.6267 72.803 19.1667 72.9257 18.676C72.803 18.3387 72.6344 17.986 72.4197 17.618C72.205 17.2193 71.9904 17.0047 71.7757 16.974C71.3464 16.974 70.825 17.2347 70.2117 17.756C69.629 18.2773 68.985 19.0287 68.2797 20.01C68.157 20.1633 68.0037 20.4087 67.8197 20.746C67.6357 21.0833 67.4517 21.4053 67.2677 21.712C67.1144 21.988 67.007 22.172 66.9457 22.264C66.8537 22.3867 66.7157 22.678 66.5317 23.138C66.3784 23.5673 66.2404 24.012 66.1177 24.472C65.995 24.9013 65.9337 25.208 65.9337 25.392C65.9337 25.576 65.949 25.7753 65.9797 25.99C66.041 26.2047 66.1944 26.3427 66.4397 26.404C66.685 26.4653 67.0684 26.3427 67.5897 26.036Z" fill="white"/>
<path d="M87.1009 31.372C86.6716 31.2493 86.2422 31.0347 85.8129 30.728C85.3836 30.4213 84.9389 30.0687 84.4789 29.67C84.1109 29.1793 83.8502 28.7347 83.6969 28.336C83.5436 27.9067 83.4515 27.416 83.4209 26.864C83.4209 26.2813 83.4209 25.5453 83.4209 24.656C83.4209 24.288 83.4822 23.7667 83.6049 23.092C83.7582 22.4173 83.9116 21.712 84.0649 20.976C84.2489 20.24 84.4176 19.596 84.5709 19.044C84.7242 18.4613 84.8162 18.078 84.8469 17.894C84.9389 17.4953 84.7856 17.2653 84.3869 17.204C83.9882 17.1427 83.5436 17.1273 83.0529 17.158C82.5929 17.158 82.2862 17.112 82.1329 17.02C82.0102 16.9893 81.9489 16.836 81.9489 16.56C81.9489 16.2533 81.9489 16.1 81.9489 16.1C81.9489 15.9773 81.8876 15.9007 81.7649 15.87C81.6422 15.8087 81.5349 15.7013 81.4429 15.548C81.3816 15.4253 81.4582 15.1953 81.6729 14.858C81.8876 14.5207 82.1636 14.3213 82.5009 14.26C82.7769 14.1987 83.1909 14.1527 83.7429 14.122C84.2949 14.0607 84.8469 13.9533 85.3989 13.8C85.9816 13.616 86.4262 13.34 86.7329 12.972C87.0089 12.2973 87.3156 11.5767 87.6529 10.81C87.9902 10.0127 88.3122 9.32267 88.6189 8.74C88.9256 8.12667 89.1402 7.74333 89.2629 7.59C89.7842 7.314 90.3209 7.20667 90.8729 7.268C91.4249 7.29867 91.8542 7.55933 92.1609 8.05C92.3142 8.26467 92.4369 8.418 92.5289 8.51C92.6516 8.602 92.6976 8.74 92.6669 8.924C92.6669 9.108 92.5442 9.44533 92.2989 9.936C92.0842 10.396 91.7162 11.1167 91.1949 12.098C91.0416 12.4047 90.9036 12.6807 90.7809 12.926C90.6582 13.1407 90.5969 13.248 90.5969 13.248C90.7196 13.2787 90.9036 13.294 91.1489 13.294C91.3942 13.294 91.7009 13.2787 92.0689 13.248C92.4062 13.1867 92.7742 13.1407 93.1729 13.11C93.5716 13.0487 93.9242 13.0487 94.2309 13.11C94.9362 13.11 95.4576 13.3093 95.7949 13.708C96.1322 14.1067 96.3162 14.6127 96.3469 15.226C96.4082 15.5633 96.2856 15.8547 95.9789 16.1C95.6722 16.3453 95.1049 16.468 94.2769 16.468C94.0009 16.468 93.6022 16.4833 93.0809 16.514C92.5596 16.5447 92.0229 16.5753 91.4709 16.606C90.9189 16.6367 90.4436 16.6827 90.0449 16.744C89.6769 16.7747 89.4929 16.8207 89.4929 16.882C89.4009 16.9433 89.2476 17.1887 89.0329 17.618C88.8489 18.0167 88.6495 18.5073 88.4349 19.09C88.2509 19.6727 88.0822 20.2247 87.9289 20.746C87.7142 21.7887 87.5609 22.8007 87.4689 23.782C87.3769 24.7633 87.3616 25.622 87.4229 26.358C87.5149 27.0633 87.6989 27.5693 87.9749 27.876C88.2509 28.152 88.6649 28.152 89.2169 27.876C89.7996 27.5693 90.3362 27.2167 90.8269 26.818C91.3789 26.358 91.8542 26.22 92.2529 26.404C92.6516 26.5573 92.8969 26.8947 92.9889 27.416C93.1116 27.9067 92.9736 28.4433 92.5749 29.026C92.2069 29.6087 91.6856 30.0993 91.0109 30.498C90.3362 30.8967 89.6462 31.1727 88.9409 31.326C88.2356 31.51 87.6222 31.5253 87.1009 31.372Z" fill="white"/>
<path d="M97.7754 29.578C97.6527 29.578 97.3921 29.486 96.9934 29.302C96.5947 29.118 96.3954 29.026 96.3954 29.026C96.3954 28.9033 96.3494 28.75 96.2574 28.566C96.1961 28.382 96.1654 28.2287 96.1654 28.106C95.9507 27.9833 95.7361 27.784 95.5214 27.508C95.3067 27.232 95.2607 26.9253 95.3834 26.588C95.5674 26.2507 95.8127 25.7447 96.1194 25.07C96.4567 24.3647 96.8094 23.5827 97.1774 22.724C97.5761 21.8347 97.9441 20.976 98.2814 20.148C98.6187 19.32 98.9101 18.6147 99.1554 18.032C99.4007 17.4187 99.5387 17.0507 99.5694 16.928C99.5694 16.8053 99.5847 16.5907 99.6154 16.284C99.6767 15.9773 99.8761 15.7167 100.213 15.502C100.612 15.226 101.026 15.2107 101.455 15.456C101.885 15.7013 102.253 16.1307 102.559 16.744C102.866 17.3267 103.019 18.0167 103.019 18.814C103.019 19.0287 102.866 19.5807 102.559 20.47C102.253 21.3287 101.839 22.356 101.317 23.552C100.827 24.748 100.275 25.9593 99.6614 27.186C99.2014 28.0753 98.8487 28.704 98.6034 29.072C98.3887 29.4093 98.1127 29.578 97.7754 29.578ZM104.031 11.96C103.663 11.96 103.219 11.7913 102.697 11.454C102.207 11.1167 101.762 10.6873 101.363 10.166C100.965 9.64467 100.765 9.09267 100.765 8.51C100.765 8.35667 100.903 8.08067 101.179 7.682C101.455 7.25267 101.716 6.83867 101.961 6.44C102.237 6.04133 102.375 5.81133 102.375 5.75C102.621 5.75 102.912 5.796 103.249 5.888C103.587 5.98 103.863 6.08733 104.077 6.21C104.415 6.97667 104.859 7.636 105.411 8.188C105.963 8.70933 106.239 9.30733 106.239 9.982C106.239 10.6567 106.071 11.1627 105.733 11.5C105.396 11.8067 104.829 11.96 104.031 11.96Z" fill="white"/>
<path d="M114.257 30.176C113.337 30.6973 112.355 31.004 111.313 31.096C110.301 31.1573 109.35 31.0193 108.461 30.682C107.571 30.314 106.851 29.7773 106.299 29.072C105.992 28.6733 105.701 28.0447 105.425 27.186C105.149 26.2967 105.103 25.1007 105.287 23.598C105.471 22.1873 105.9 20.7613 106.575 19.32C107.28 17.8787 108.139 16.606 109.151 15.502C110.163 14.398 111.267 13.6467 112.463 13.248C112.892 13.0947 113.321 12.9873 113.751 12.926C114.211 12.834 114.809 12.8187 115.545 12.88C116.25 12.972 116.879 13.156 117.431 13.432C117.983 13.6773 118.381 13.9533 118.627 14.26C119.117 14.7507 119.439 15.226 119.593 15.686C119.746 16.146 119.807 16.5907 119.777 17.02C119.623 18.0013 119.179 19.0593 118.443 20.194C117.737 21.3287 116.741 22.172 115.453 22.724C114.931 22.9387 114.318 23.0767 113.613 23.138C112.907 23.1993 111.941 23.1073 110.715 22.862C109.979 22.7087 109.488 22.7853 109.243 23.092C109.028 23.3987 108.936 23.9967 108.967 24.886C109.028 25.438 109.151 25.9287 109.335 26.358C109.549 26.7567 109.933 27.0327 110.485 27.186C111.19 27.3087 111.696 27.324 112.003 27.232C112.309 27.1093 112.693 26.9407 113.153 26.726C113.398 26.5727 113.628 26.404 113.843 26.22C114.088 26.036 114.318 25.852 114.533 25.668C114.778 25.484 114.977 25.346 115.131 25.254C115.284 25.1313 115.437 25.0547 115.591 25.024C115.744 24.9933 115.897 24.978 116.051 24.978C116.388 25.0087 116.71 25.1927 117.017 25.53C117.323 25.8673 117.523 26.1893 117.615 26.496C117.615 26.7413 117.461 27.094 117.155 27.554C116.848 27.9833 116.434 28.4433 115.913 28.934C115.422 29.394 114.87 29.808 114.257 30.176ZM113.659 19.918C113.873 19.826 114.18 19.6113 114.579 19.274C115.008 18.9367 115.391 18.584 115.729 18.216C116.066 17.8173 116.235 17.5107 116.235 17.296C116.235 16.9587 116.005 16.6673 115.545 16.422C115.115 16.1767 114.548 16.1307 113.843 16.284C113.597 16.3453 113.306 16.514 112.969 16.79C112.631 17.066 112.294 17.388 111.957 17.756C111.619 18.0933 111.328 18.4307 111.083 18.768C110.837 19.0747 110.669 19.32 110.577 19.504C110.699 19.6573 110.945 19.78 111.313 19.872C111.681 19.964 112.079 20.01 112.509 20.01C112.969 20.01 113.352 19.9793 113.659 19.918Z" fill="white"/>
</svg>
